<svg width="462" height="535" viewBox="0 0 462 535" fill="none" xmlns="http://www.w3.org/2000/svg">
<path d="M435.17 414.725C409.933 432.079 416.937 448.206 434.904 469.587C472.253 514.03 371.302 538.684 189.785 534.552C120.314 532.971 -4.16476 514.074 40.195 437.453C76.3249 375.048 -2.22218 382.577 0.0484004 334.761C1.90756 295.602 55.9646 271.335 131.099 269.102C222.779 266.376 254.346 319.257 326.666 321.894C466.763 321.894 488.739 377.886 435.17 414.725Z" fill="#FFEBE6"/>
<path d="M268.742 444.671C268.742 444.671 271.597 451.039 277.862 454.905C280.912 456.786 286.758 457.62 291.416 458.714C294.204 459.368 294.866 464.662 290.553 465.169C280.67 466.33 257.578 465.449 250.985 461.308C245.561 457.724 251.557 445.379 251.557 445.379L268.742 444.671Z" fill="#414140"/>
<path d="M150.243 439.754C150.243 439.754 145.575 445.42 149.799 451.448C151.855 454.382 158.038 455.742 161.882 458.589C164.185 460.294 161.111 462.302 154.88 463.15C137.528 465.51 132.596 458.108 126.346 444.523C123.657 437.571 137.538 425.756 137.538 425.756L150.243 439.754Z" fill="#414140"/>
<path d="M176.497 305.933C176.497 305.933 174.018 359.521 260.795 384.325C260.795 384.325 241.219 421.948 249.69 446.365C264.764 453.035 276.943 451.071 276.943 451.071C276.943 451.071 324.072 378.424 315.57 356.633C309.319 340.61 282.436 322.675 252.059 317.982L176.497 305.933Z" fill="#8A5E43"/>
<path d="M178.957 317.523C158.4 349.462 204.909 414.29 185.075 418.094C157.701 423.345 136.557 424.16 133.794 425.756C138.481 440.241 150.142 447.221 150.142 447.221C150.142 447.221 221.22 462.901 229.173 451.954C237.126 441.007 264.141 369.195 248.749 326.351C248.749 326.351 196.709 289.942 178.957 317.523Z" fill="#8A5E43"/>
<path opacity="0.1" d="M252.393 347.134C252.393 347.134 256.5 357.971 251.707 381.517C253.596 382.382 254.581 382.465 256.127 383.157C260.016 364.233 252.393 347.134 252.393 347.134Z" fill="#3D302C"/>
<path opacity="0.1" d="M209.631 334.918C209.631 334.918 201.659 344.865 191.734 347.01L193.347 351.571C193.347 351.571 204.503 348.373 209.631 343.244C214.759 338.116 214.759 338.116 214.759 338.116L209.631 334.918Z" fill="#3D302C"/>
<path d="M182.496 125.226C182.496 125.226 148.608 151.197 144.993 185.947C141.379 220.697 157.795 252.62 157.795 252.62C157.795 252.62 179.41 235.293 192.802 204.326C206.194 173.359 195.268 135.89 195.268 135.89L182.496 125.226Z" fill="#39393D"/>
<path opacity="0.07" d="M245.629 160.476C245.629 160.476 227.519 162.338 209.636 158.334C209.636 158.334 229.598 166.466 247.192 163.642C246.488 162.878 245.629 160.476 245.629 160.476Z" fill="#0D0D0D"/>
<path d="M216.174 24.2128C216.174 24.2128 203.261 26.3543 189.399 33.203C175.187 40.2245 159.979 52.2031 156.676 71.8996C154.774 83.2421 154.985 94.345 157.307 104.668C162.956 129.759 181.068 150.216 211.576 158.176C233.105 163.79 256.935 162.431 275.393 150.746C293.857 139.063 306.278 112.414 303.498 89.3041C300.719 66.1937 291.076 53.3603 275.612 41.6866C260.15 30.0117 239.543 24.1369 216.174 24.2128Z" fill="#E9B8AD"/>
<path d="M253.495 117.766C252.276 121.57 249.137 124.561 245.055 124.976C240.384 125.452 236.6 122.452 233.957 118.881C232.92 117.482 234.67 117.016 237.127 117.016C237.127 117.016 254.218 115.505 253.495 117.766Z" fill="#EFEFF7"/>
<path opacity="0.58" d="M245.333 109.133C245.378 109.135 245.422 109.139 245.466 109.137C245.676 109.131 247.538 109.092 248.754 108.833C251.696 108.199 252.834 106.741 253.267 105.631C253.718 104.483 253.863 102.556 252.005 99.9161C250.356 97.5743 250.353 93.07 250.495 91.528C250.568 90.7178 249.967 89.9952 249.153 89.9245C249.14 89.9232 249.13 89.9232 249.12 89.9219C248.321 89.8656 247.619 90.4599 247.543 91.2623C247.517 91.5307 246.966 97.9107 249.584 101.622C250.429 102.825 250.768 103.889 250.513 104.55C250.272 105.165 249.428 105.656 248.139 105.932C247.343 106.101 245.902 106.164 245.415 106.174C244.595 106.189 243.943 106.864 243.96 107.68C243.973 108.457 244.576 109.08 245.333 109.133Z" fill="#CB9189"/>
<path opacity="0.58" d="M297.858 124.932C295.731 125.824 293.374 126.241 290.917 126.07C282.516 125.482 276.184 118.198 276.772 109.798C277.359 101.399 284.644 95.0637 293.045 95.6514C296.193 95.8714 299.053 97.0324 301.364 98.8428" fill="#DCA49A"/>
<path opacity="0.58" d="M175.072 111.234C174.445 120.192 181.196 127.963 190.153 128.588C199.11 129.215 206.882 122.461 207.509 113.502C208.136 104.547 201.381 96.7771 192.422 96.1501C183.466 95.5244 175.699 102.279 175.072 111.234Z" fill="#DCA49A"/>
<path d="M293.467 132.091C320.67 98.9592 311.302 52.1756 286.449 23.5884C261.596 -5.00012 205.601 0.407356 205.601 0.407356C154.098 7.41181 135.421 35.7163 132.203 81.7027C130.14 111.187 147.983 144.926 184.227 145.65C167.495 127.224 168.914 121.381 173.723 105.214C175.954 97.7104 179.751 94.9458 179.751 94.9458C227.884 80.4055 288.386 57.0215 288.386 57.0215C298.837 71.9088 302.021 104.686 295.475 127.09C294.917 128.99 294.081 130.896 293.467 132.091Z" fill="#44444A"/>
<path d="M173.866 120.563C173.01 120.732 171.096 120.886 170.183 120.822C164.703 120.439 160.569 115.683 160.953 110.201C161.336 104.721 166.092 100.586 171.571 100.97C172.943 101.065 175.263 101.457 176.415 102.043C176.415 102.043 174.061 107.118 173.963 113.84C173.866 120.563 173.866 120.563 173.866 120.563Z" fill="#E9B8AD"/>
<g opacity="0.37">
<path opacity="0.58" d="M165.826 112.642C166.544 112.692 167.211 112.222 167.383 111.498C168.343 107.423 172.219 107.123 172.384 107.113C173.202 107.059 173.829 106.354 173.784 105.536C173.731 104.723 173.038 104.096 172.221 104.138C170.06 104.244 165.663 105.783 164.475 110.816C164.288 111.617 164.787 112.42 165.589 112.611C165.67 112.628 165.75 112.637 165.826 112.642Z" fill="#CB9189"/>
</g>
<path d="M208.924 92.9967C208.61 94.0309 208.39 97.9264 210.153 97.8885C212.081 97.8479 211.895 94.0125 211.855 92.8567C211.817 91.7794 213.004 90.973 213.983 91.0398C215.151 91.121 215.762 92.1053 215.8 93.1682C215.933 96.9617 214.365 102.387 209.505 101.817C204.922 101.279 204.128 95.1815 205.204 91.6459C205.943 89.2111 209.663 90.562 208.924 92.9967Z" fill="#3E3E41"/>
<path d="M272.799 89.6797C272.485 90.7138 272.265 94.6094 274.028 94.5715C275.956 94.5309 275.77 90.6955 275.73 89.5397C275.692 88.4624 276.88 87.656 277.858 87.7228C279.026 87.8026 279.637 88.7883 279.675 89.8512C279.809 93.6447 278.24 99.0705 273.38 98.4998C268.797 97.9618 268.003 91.8645 269.079 88.3288C269.82 85.8941 273.54 87.245 272.799 89.6797Z" fill="#3E3E41"/>
<path d="M190.73 227.122C193.134 243.975 271.956 196.264 268.147 182.569C264.557 169.665 246.764 175.941 243.875 152.903C240.561 126.463 224.925 150.887 206.133 152.903C205.744 154.601 207.972 162.456 201.737 166.195C172.181 183.917 190.023 188.97 190.73 227.122Z" fill="#E9B8AD"/>
<path d="M170.933 327.201C191.655 347.924 295.434 331.962 295.434 331.962C283.828 277.183 274.68 216.571 274.68 216.571C274.68 216.571 279.5 208.076 283.935 188.633C280.432 184.285 257.404 168.891 251.707 168.734C253.8 173.237 254.481 179.965 243.587 180.812C223.162 182.4 209.637 171.195 204.69 163.315C198.719 166.066 193.059 169.159 183.917 176.654C171.811 186.578 171.742 205.103 177.163 224.34C178.116 235.263 173.053 316.852 170.933 327.201Z" fill="#D3755F"/>
<path opacity="0.58" d="M245.629 160.476C245.629 160.476 222.802 160.892 215.685 158.334C215.685 158.334 225.811 166.624 247.191 163.642L245.629 160.476Z" fill="#CB9189"/>
<path d="M270.809 201.866L274.678 216.573L276.347 213.067L270.809 201.866Z" fill="#D67D66"/>
<path d="M277.297 140.737C277.297 140.737 278.4 140.512 274.598 145.802C271.202 150.524 267.968 151.507 267.968 151.507L268.286 150.797C268.286 150.797 272.768 139.356 273.037 134.706L277.297 140.737Z" fill="#C98353"/>
<path d="M247.149 125.849C247.149 125.849 262.916 115.642 271.876 107.681C273.057 106.631 274.923 107.35 275.067 108.923C275.757 116.519 276.714 133.442 272.722 142.77C267.466 155.05 268.286 150.797 268.286 150.797C268.286 150.797 248.541 129.867 247.149 125.849Z" fill="#CC8554"/>
<path d="M259.861 135.358C259.861 135.358 270.448 116.776 271.876 107.681C271.876 107.681 259.663 117.127 256.734 119.065C253.804 121.003 247.692 125.678 247.692 125.678C251.952 131.697 259.242 129.298 259.861 135.358Z" fill="#E8A679"/>
<path d="M330.165 416.029C333.459 421.737 336.179 448.318 334.28 450.217C332.381 452.116 324.593 459.64 325.734 461.613C326.872 463.586 335.144 465.409 345.676 463.196C358.394 460.524 350.343 416.481 355.173 408.116C355.173 408.116 372.351 381.436 374.32 369.268C376.288 357.101 345.869 355.849 345.869 355.849L310.439 389.667L330.165 416.029Z" fill="#CC8554"/>
<path d="M241.628 224.725C239.617 215.164 229.247 196.983 226.085 193.822C221.495 189.232 209.526 181.714 199.29 176.411C181.949 167.43 169.746 147.527 173.861 134.864C177.976 122.202 186.206 126.665 191.581 127.662C191.581 127.662 205.51 131.46 224.502 127.662C243.496 123.863 264.59 119.416 282.437 150.328C300.283 181.239 324.011 247.269 338.462 273.909C362.331 317.913 363.786 344.818 363.786 344.818C363.786 344.818 379.84 356.48 390.652 350.236C401.466 343.993 405.815 312.556 392.275 289.104C378.735 265.651 383.412 265.651 383.412 265.651C383.412 265.651 402.114 283.655 410.003 299.867C421.969 324.455 421.899 359.217 400.187 371.753C375.304 386.119 351.123 376.473 351.123 376.473C351.123 376.473 324.931 406.727 320.101 415.093C315.271 423.458 323.322 467.501 310.604 470.173C300.071 472.385 291.8 470.563 290.662 468.59C289.523 466.617 297.309 459.093 299.208 457.194C301.107 455.295 298.389 428.714 295.093 423.006C291.797 417.297 277.337 403.263 274.172 378.343C271.627 358.311 279.39 328.675 275.467 321.707C262.373 298.454 255.683 262.354 253.308 259.979" fill="#D69059"/>
<path d="M173.861 134.864C173.861 134.864 181.972 134.36 189.225 127.105C189.225 127.105 179.741 122.664 177.208 124.127C174.675 125.591 173.861 134.864 173.861 134.864Z" fill="#7C533C"/>
<path d="M229.753 146.325C228.762 146.756 225.654 149.116 226.827 150.434C228.11 151.875 230.907 149.246 231.761 148.465C232.555 147.739 233.94 148.119 234.524 148.907C235.22 149.848 234.867 150.951 234.083 151.67C231.283 154.232 226.136 156.559 223.417 152.489C220.853 148.653 224.979 144.092 228.368 142.617C230.7 141.602 232.087 145.309 229.753 146.325Z" fill="#3E3E41"/>
<path d="M286.809 158.136C286.809 158.136 287.935 158.136 283.152 162.56C278.881 166.507 275.514 166.823 275.514 166.823L275.967 166.189C275.967 166.189 282.647 155.876 283.84 151.374L286.809 158.136Z" fill="#C98353"/>
<path d="M260.249 137.518C260.249 137.518 277.738 130.672 288.109 124.663C289.476 123.871 291.162 124.948 290.988 126.518C290.145 134.099 287.697 150.87 281.92 159.211C274.315 170.191 275.968 166.188 275.968 166.188C275.968 166.188 260.809 141.735 260.249 137.518Z" fill="#D69059"/>
<path d="M270.802 149.378C270.802 149.378 284.892 133.289 288.11 124.664C288.11 124.664 274.255 131.476 270.997 132.789C267.738 134.102 268.722 133.705 268.722 133.705C271.69 140.454 271.406 143.316 270.802 149.378Z" fill="#E8A679"/>
<path d="M191.201 224.749C198.667 237.926 231.289 256.82 251.008 264.617C268.222 271.422 290.878 271.281 304.714 270.839C307.354 270.753 310.299 270.382 312.657 271.852C313.546 272.407 323.194 278.234 324.008 278.894C324.823 279.554 327.053 279.787 327.522 277.757C327.928 275.996 317.588 269.748 317.588 269.748C317.588 269.748 328.917 273.775 330.337 274.298C331.758 274.822 333.438 275.62 334.258 273.895C335.153 270.776 319.046 265.589 319.046 265.589C319.046 265.589 329.513 268.141 334.645 268.753C335.823 268.893 336.663 268.308 336.91 267.618C337.119 266.449 336.363 265.634 335.439 265.32C331.039 263.821 319.278 261.647 319.278 261.647C319.278 261.647 331.95 263.029 334.404 262.464C335.982 262.101 336.083 259.59 333.893 259.198C331.089 258.694 324.484 257.679 320.051 256.94C318.991 256.763 318.943 256.32 319.657 255.518C321.105 253.892 323.381 250.833 321.701 249.562C319.385 248.864 317.486 253.234 313.099 255.663C311.367 256.623 306.194 255.563 304.216 255.625C293.625 255.963 270.122 250.904 262.02 246.996C254.79 243.509 226.716 222.139 215.809 208.69C211.166 206.039 215.892 207.761 206.182 202.539C204.895 203.276 200.645 209.071 199.32 210.063C193.679 214.29 191.201 224.749 191.201 224.749Z" fill="#E9B8AD"/>
<path d="M191.009 225.836L222.616 206.788C222.616 206.788 210.577 181.87 195.405 182.717C180.232 183.564 178.665 200.299 180.232 206.161C181.799 212.021 191.009 225.836 191.009 225.836Z" fill="#D3755F"/>
<path d="M216.935 210.19L219.787 208.183L215.808 200.247L223.767 209.001L219.773 213.168L216.935 210.19Z" fill="#BF6A58"/>
<path d="M191.582 225.41L187.594 227.712L183.14 221.193L187.362 230.682L193.061 227.536L191.582 225.41Z" fill="#BF6A58"/>
<path d="M309.037 202.201C308.024 204.252 305.215 204.555 303.729 202.815C300.883 199.484 296.303 193.839 294.519 190.039C291.847 184.35 292.986 181.04 298.466 180.405C302.336 179.955 307.567 191.255 307.567 191.255C307.567 191.255 310.807 198.52 309.097 202.081C309.076 202.12 309.057 202.161 309.037 202.201Z" fill="#E9B8AD"/>
<path d="M248.78 238.16C247.589 235.021 229.25 214.339 217.847 205.736C206.445 197.133 195.236 191.859 192.275 187.75C187.044 180.49 197.105 173.956 203.456 176.813C209.808 179.671 238.935 198.216 248.664 207.453C251.692 210.328 253.469 208.321 254.414 204.009" fill="#D69059"/>
<path d="M268.581 218.129C268.396 218.129 268.207 218.09 268.026 218.009C267.393 217.721 252.388 210.869 242.087 202.932C222.164 187.574 199.122 176.398 198.89 176.301C198.206 176.012 198.206 176.013 198.89 176.301C199.125 176.399 223.532 185.235 243.728 200.803C253.777 208.548 268.985 215.491 269.136 215.562C269.812 215.868 270.11 216.666 269.804 217.341C269.58 217.836 269.092 218.129 268.581 218.129Z" fill="#C98353"/>
<path fill-rule="evenodd" clip-rule="evenodd" d="M360.561 143.413C356.608 153.037 342.143 162.666 337.297 161.909C331.322 160.974 322.02 147.647 321.309 137.268C320.563 126.359 330.904 116.72 342.358 131.051C357.314 121.179 364.456 133.938 360.561 143.413Z" fill="#D3755F"/>
<path fill-rule="evenodd" clip-rule="evenodd" d="M376.037 178.667C370.66 181.912 360.182 181.379 358.105 179.269C355.543 176.667 355.826 166.86 359.215 161.571C362.777 156.013 371.258 155.058 371.657 166.127C382.458 166.718 381.333 175.473 376.037 178.667Z" fill="#E48D73"/>
</svg>
