<svg width="247" height="68" viewBox="0 0 247 68" fill="none" xmlns="http://www.w3.org/2000/svg">
<path d="M107.376 14.8728C106.882 16.4432 105.106 17.4019 103.409 17.0141C103.127 16.9497 102.865 16.8521 102.626 16.727L102.632 16.7366C101.557 16.227 101.058 15.904 99.5393 15.962C99.4612 15.9649 99.3805 15.9689 99.2967 15.974L99.2945 15.974C99.0252 15.9777 98.7525 15.9502 98.4818 15.8883C96.7845 15.5005 95.8087 13.9131 96.3022 12.3427C96.6045 11.3808 97.3879 10.6485 98.3396 10.3146C99.0689 9.97515 99.8523 9.4638 100.69 8.78074C101.453 8.04017 102.563 7.67801 103.627 7.92112C104.543 8.13047 105.225 8.74286 105.542 9.52587L105.55 9.50483C105.941 10.7684 106.42 11.7564 106.984 12.4689L106.979 12.4668C107.474 13.1385 107.647 14.0083 107.376 14.8728Z" fill="#E0907B"/>
<path d="M103.442 5.85216C103.232 6.2227 102.943 6.62309 102.458 6.92161C102.31 7.01279 101.629 7.43228 100.882 7.28549C100.095 7.13104 99.7548 6.45179 99.5827 6.10824C98.9918 4.92833 99.4836 3.67211 99.5927 3.39347C99.7118 3.08924 100.022 2.32519 100.821 1.66713C101.612 1.01629 103.093 0.294383 103.929 0.74711C105.245 1.45927 104.135 4.62841 103.442 5.85216Z" fill="#E0907B"/>
<path d="M98.581 6.89147C98.5808 7.32528 98.5797 9.49031 97.317 10.021C96.4078 10.4031 95.1944 9.79064 94.6948 8.98211C93.5402 7.11309 95.8222 3.5842 97.0767 3.58639C98.0024 3.58801 98.5817 5.51299 98.581 6.89147Z" fill="#E0907B"/>
<path d="M104.886 6.25235C104.834 6.65616 104.831 7.1173 105.062 7.5675C105.133 7.70502 105.457 8.33767 106.198 8.50613C106.976 8.68337 107.7 8.22964 108.067 8.00015C109.324 7.21198 109.693 5.92959 109.775 5.64515C109.864 5.33458 110.078 4.55024 109.802 3.66434C109.529 2.78815 108.703 1.57735 107.692 1.63869C106.103 1.73518 105.06 4.91871 104.886 6.25235Z" fill="#E0907B"/>
<path d="M108.575 9.23271C108.3 9.60849 106.932 11.4839 107.69 12.4427C108.236 13.1331 109.674 13.0824 110.618 12.5797C112.8 11.4176 113.055 7.45927 111.967 6.9652C111.164 6.60058 109.446 8.03864 108.575 9.23271Z" fill="#E0907B"/>
<path d="M17.0469 45C16.5 44.0235 16.0312 42.7735 15.6406 41.25C15.2891 39.6875 14.9766 38.0664 14.7031 36.3867C14.4688 34.7071 14.2734 33.125 14.1172 31.6406C13.9609 30.1563 13.8047 28.9844 13.6484 28.125V18.0469C13.6484 17.6172 13.8242 17.2266 14.1758 16.875C14.5273 16.4844 14.918 16.2891 15.3477 16.2891C15.4258 16.2891 15.5234 16.2891 15.6406 16.2891C15.7578 16.2891 15.8359 16.2891 15.875 16.2891C16.0312 17.3438 16.1484 18.4375 16.2266 19.5703C16.3047 20.6641 16.3633 21.7578 16.4023 22.8516C16.4805 23.9453 16.6172 25.0391 16.8125 26.1328C16.9688 27.2266 17.2227 28.2813 17.5742 29.2969C18.1992 29.4531 18.8828 29.5703 19.625 29.6485C20.3281 29.6485 21.1484 29.6875 22.0859 29.7656C23.1016 29.7656 24.1953 29.6094 25.3672 29.2969C26.5781 28.9453 27.6914 28.4571 28.707 27.8321C29.7227 27.2071 30.5625 26.4453 31.2266 25.5469C31.9297 24.6094 32.2812 23.5742 32.2812 22.4414C32.2812 21.1914 31.8711 20.0977 31.0508 19.1602C30.2305 18.1836 29.1758 17.3242 27.8867 16.5821C26.5977 15.8399 25.1719 15.1953 23.6094 14.6485C22.0469 14.1016 20.5039 13.6719 18.9805 13.3594C17.4961 13.0078 16.1094 12.7539 14.8203 12.5977C13.5312 12.4414 12.5352 12.3633 11.832 12.3633C11.5977 12.3633 11.168 12.3438 10.543 12.3047C9.91797 12.2656 9.21484 12.2656 8.43359 12.3047C7.69141 12.3047 6.96875 12.3438 6.26562 12.4219C5.5625 12.5 5.01562 12.6563 4.625 12.8906C4.27344 13.086 3.94141 13.4375 3.62891 13.9453C3.35547 14.4531 3.08203 14.9805 2.80859 15.5274C2.53516 16.0352 2.24219 16.4844 1.92969 16.875C1.65625 17.2656 1.34375 17.461 0.992188 17.461H0.875C0.835938 17.461 0.777344 17.4414 0.699219 17.4024C0.621094 17.3633 0.5625 17.3047 0.523438 17.2266C0.484375 17.1485 0.425781 16.9531 0.347656 16.6406C0.308594 16.3281 0.269531 15.8789 0.230469 15.293C0.191406 14.7071 0.171875 13.9063 0.171875 12.8906C0.171875 12.461 0.367188 12.0703 0.757812 11.7188C1.1875 11.3281 1.73438 10.9961 2.39844 10.7227C3.10156 10.4492 3.84375 10.2149 4.625 10.0196C5.40625 9.78518 6.14844 9.6094 6.85156 9.49221C7.59375 9.33596 8.23828 9.21877 8.78516 9.14065C9.37109 9.06252 9.76172 9.02346 9.95703 9.02346C11.2852 9.02346 12.8281 9.10158 14.5859 9.25783C16.3828 9.41408 18.2188 9.70705 20.0938 10.1367C22.0078 10.5274 23.8828 11.0742 25.7188 11.7774C27.5938 12.4414 29.2539 13.2813 30.6992 14.2969C32.1445 15.2735 33.3359 16.4649 34.2734 17.8711C35.1719 19.2383 35.6211 20.8594 35.6211 22.7344C35.8164 24.0625 35.582 25.293 34.918 26.4258C34.2539 27.5196 33.3359 28.5156 32.1641 29.4141C31.0312 30.2735 29.7422 31.0352 28.2969 31.6992C26.8516 32.3242 25.4453 32.8321 24.0781 33.2227C22.7109 33.5742 21.4805 33.8086 20.3867 33.9258C19.293 34.0039 18.5312 33.9453 18.1016 33.75V34.2774C18.1016 35.6446 18.2188 36.9922 18.4531 38.3203C18.6875 39.6485 18.8047 40.9961 18.8047 42.3633C18.8047 42.5196 18.7852 42.7735 18.7461 43.125C18.707 43.4375 18.6094 43.75 18.4531 44.0625C18.3359 44.375 18.1602 44.6289 17.9258 44.8242C17.7305 45.0196 17.4375 45.0781 17.0469 45Z" fill="black"/>
<path d="M37.7891 35.0977C37.8281 34.4336 38.0234 33.6719 38.375 32.8125C38.7266 31.9531 39.2734 31.1133 40.0156 30.293C40.7578 29.4727 41.6953 28.75 42.8281 28.125C43.9609 27.461 45.2891 26.9922 46.8125 26.7188C48.375 26.4453 50.1328 26.4258 52.0859 26.6602C54.0781 26.8946 56.2852 27.4805 58.707 28.418C58.707 28.3789 58.707 28.1836 58.707 27.8321L58.6484 27.3047C58.6484 26.2891 58.3555 25.2539 57.7695 24.1992C57.1836 23.1446 56.4219 22.2071 55.4844 21.3867C54.5859 20.5274 53.6094 19.8438 52.5547 19.336C51.5 18.7891 50.4844 18.5156 49.5078 18.5156C49.1172 18.5156 48.7656 18.5742 48.4531 18.6914C48.1797 18.8086 47.9062 18.9649 47.6328 19.1602C47.3594 19.3164 47.0859 19.4727 46.8125 19.6289C46.5781 19.7461 46.2852 19.8047 45.9336 19.8047C45.8555 19.8047 45.8164 19.7852 45.8164 19.7461C45.7773 19.7071 45.7383 19.668 45.6992 19.6289C45.6211 19.5508 45.5039 19.4531 45.3477 19.336C45.2305 19.2188 45.1719 19.1406 45.1719 19.1016C45.1719 18.3985 45.2891 17.793 45.5234 17.2852C45.7969 16.7774 46.1484 16.3672 46.5781 16.0547C47.0469 15.7422 47.5547 15.5078 48.1016 15.3516C48.6875 15.1563 49.293 15.0586 49.918 15.0586C51.4805 15.2149 52.9648 15.7031 54.3711 16.5235C55.8164 17.3047 57.125 18.3008 58.2969 19.5117C59.5078 20.7227 60.5625 22.1289 61.4609 23.7305C62.3594 25.293 63.1016 26.9336 63.6875 28.6524C64.3125 30.3321 64.7227 32.0313 64.918 33.75C65.1523 35.5469 65.1719 37.2266 64.9766 38.7891C64.9375 38.7891 64.8203 38.7891 64.625 38.7891C64.4297 38.75 64.2148 38.7305 63.9805 38.7305C63.7461 38.6914 63.5508 38.6524 63.3945 38.6133L63.1016 38.5547C62.2812 36.7188 61.3633 35.2344 60.3477 34.1016C59.332 32.9688 58.3164 32.0899 57.3008 31.4649C56.3242 30.8008 55.4062 30.3516 54.5469 30.1172C53.6875 29.8438 52.9844 29.6485 52.4375 29.5313C51.8516 29.5313 51.1484 29.5703 50.3281 29.6485C49.5469 29.7266 48.7266 29.8633 47.8672 30.0586C47.0078 30.2539 46.1289 30.5274 45.2305 30.8789C44.3711 31.1914 43.5898 31.5821 42.8867 32.0508C42.2227 32.5196 41.6758 33.086 41.2461 33.75C40.8555 34.375 40.6602 35.1172 40.6602 35.9766C40.6602 36.9141 41.0312 37.7149 41.7734 38.3789C42.5156 39.0039 43.4141 39.5313 44.4688 39.961C45.5234 40.3516 46.5977 40.625 47.6914 40.7813C48.7852 40.9375 49.6641 41.0156 50.3281 41.0156C51.4219 41.0156 52.4961 40.9571 53.5508 40.8399C54.6055 40.7227 55.6406 40.586 56.6562 40.4297C57.7109 40.2735 58.7461 40.1367 59.7617 40.0196C60.7773 39.9024 61.793 39.8438 62.8086 39.8438C62.8867 39.8438 63.0234 39.8438 63.2188 39.8438C63.4141 39.8438 63.6094 39.8633 63.8047 39.9024C64.0391 39.9024 64.2344 39.9024 64.3906 39.9024C64.5859 39.9024 64.7227 39.9024 64.8008 39.9024C65.1133 40.0196 65.2891 40.1953 65.3281 40.4297C65.3672 40.6641 65.3867 40.8985 65.3867 41.1328C65.3867 41.3672 65.1328 41.6211 64.625 41.8946C64.1562 42.168 63.5312 42.4414 62.75 42.7149C61.9688 42.9883 61.0898 43.2813 60.1133 43.5938C59.1758 43.8672 58.2578 44.1016 57.3594 44.2969C56.5 44.4922 55.6797 44.668 54.8984 44.8242C54.1562 44.9414 53.6289 45 53.3164 45C51.6758 45 49.9375 44.8633 48.1016 44.5899C46.2656 44.3164 44.5859 43.8281 43.0625 43.125C41.5391 42.3828 40.2695 41.3672 39.2539 40.0781C38.2773 38.7891 37.7891 37.1289 37.7891 35.0977Z" fill="black"/>
<path d="M87.3008 39.375C85.7383 41.4844 84.1562 42.9688 82.5547 43.8281C80.9922 44.6485 79.4883 45.0196 78.043 44.9414C76.6367 44.8242 75.2891 44.2969 74 43.3594C72.75 42.4219 71.6562 41.25 70.7188 39.8438C69.8203 38.4375 69.0781 36.8555 68.4922 35.0977C67.9453 33.3008 67.6523 31.4844 67.6133 29.6485C67.5742 27.8125 67.8086 26.0352 68.3164 24.3164C68.8633 22.5586 69.7617 20.9961 71.0117 19.6289C71.6367 19.8633 71.9883 20.1758 72.0664 20.5664C72.1445 20.9961 72.1836 21.4453 72.1836 21.9141C72.1836 22.5781 72.1055 23.2227 71.9492 23.8477C71.832 24.4336 71.6953 25.0391 71.5391 25.6641C71.3828 26.2891 71.2266 26.9336 71.0703 27.5977C70.9531 28.2617 70.8945 28.9453 70.8945 29.6485C70.8945 30.1563 70.9531 30.8008 71.0703 31.5821C71.1875 32.3242 71.3438 33.125 71.5391 33.9844C71.7734 34.8438 72.0664 35.7031 72.418 36.5625C72.7695 37.3828 73.1797 38.1446 73.6484 38.8477C74.1562 39.5117 74.7031 40.0781 75.2891 40.5469C75.875 40.9766 76.5391 41.1914 77.2812 41.1914C77.9453 41.1914 78.7266 40.9961 79.625 40.6055C80.5625 40.1758 81.4414 39.6485 82.2617 39.0235C83.1211 38.3985 83.8242 37.6953 84.3711 36.9141C84.957 36.1328 85.25 35.3516 85.25 34.5703L85.6016 26.9531C85.6016 26.836 85.6797 26.7188 85.8359 26.6016C85.9922 26.4844 86.1484 26.3867 86.3047 26.3086C86.5 26.1914 86.6953 26.0938 86.8906 26.0156C87.0859 25.9375 87.2227 25.8985 87.3008 25.8985C87.8477 25.8985 88.2188 26.25 88.4141 26.9531C88.6094 27.6563 88.7656 28.5742 88.8828 29.7071C89 30.8008 89.1367 31.9727 89.293 33.2227C89.4492 34.4727 89.7227 35.6641 90.1133 36.7969C90.543 37.8906 91.168 38.7891 91.9883 39.4922C92.7695 40.1953 93.9023 40.5469 95.3867 40.5469C96.832 40.5078 97.9844 40.2149 98.8438 39.668C99.7031 39.0821 100.328 38.3203 100.719 37.3828C101.109 36.4453 101.285 35.4102 101.246 34.2774C101.246 33.1055 101.09 31.9531 100.777 30.8203C100.504 29.6485 100.113 28.5352 99.6055 27.4805C99.1367 26.4258 98.6094 25.5078 98.0234 24.7266C97.9453 24.4141 97.9453 24.1992 98.0234 24.0821C98.1016 23.9258 98.1992 23.8281 98.3164 23.7891C98.4727 23.711 98.6484 23.6719 98.8438 23.6719C99.0391 23.6328 99.1953 23.6133 99.3125 23.6133C99.9375 23.7696 100.602 24.2969 101.305 25.1953C102.047 26.0547 102.691 27.0899 103.238 28.3008C103.785 29.5117 104.195 30.8594 104.469 32.3438C104.781 33.8281 104.859 35.293 104.703 36.7383C104.586 38.1836 104.176 39.5313 103.473 40.7813C102.77 42.0313 101.695 43.0469 100.25 43.8281C98.5312 43.9453 97.125 44.0235 96.0312 44.0625C94.9375 44.0625 94.0195 44.0235 93.2773 43.9453C92.5742 43.8281 92.0078 43.6524 91.5781 43.418C91.1484 43.1836 90.7383 42.8906 90.3477 42.5391C89.957 42.1485 89.5273 41.6992 89.0586 41.1914C88.6289 40.6836 88.043 40.0781 87.3008 39.375Z" fill="black"/>
<path d="M12.624 64.44C12.6427 64.5147 12.652 64.5707 12.652 64.608C12.652 64.7294 12.61 64.8274 12.526 64.902C12.442 64.9767 12.344 65.014 12.232 65.014C12.1387 65.014 12.0547 64.9907 11.98 64.944C11.9147 64.888 11.8633 64.818 11.826 64.734L10.776 62.172H6.226L5.19 64.734C5.11533 64.9207 4.98933 65.014 4.812 65.014C4.68133 65.014 4.58333 64.9814 4.518 64.916C4.45267 64.8507 4.41533 64.762 4.406 64.65V64.608C4.406 64.552 4.41067 64.51 4.42 64.482L8.116 55.438C8.19067 55.2514 8.33067 55.158 8.536 55.158C8.62933 55.158 8.70867 55.186 8.774 55.242C8.84867 55.2887 8.90467 55.354 8.942 55.438L12.624 64.44ZM6.548 61.346H10.44L8.48 56.558L6.548 61.346Z" fill="black"/>
<path d="M17.5445 57.678C18.4125 57.678 19.0471 57.9347 19.4485 58.448C19.8591 58.952 20.0645 59.624 20.0645 60.464V64.58C20.0645 64.7014 20.0225 64.804 19.9385 64.888C19.8545 64.9627 19.7565 65 19.6445 65C19.5231 65 19.4205 64.9627 19.3365 64.888C19.2618 64.804 19.2245 64.7014 19.2245 64.58V60.506C19.2245 59.8994 19.0705 59.4094 18.7625 59.036C18.4638 58.6534 17.9971 58.462 17.3625 58.462C16.9611 58.462 16.5785 58.5554 16.2145 58.742C15.8598 58.9287 15.5705 59.1807 15.3465 59.498C15.1225 59.806 15.0105 60.142 15.0105 60.506V64.58C15.0105 64.7014 14.9685 64.804 14.8845 64.888C14.8098 64.9627 14.7118 65 14.5905 65C14.4691 65 14.3665 64.9627 14.2825 64.888C14.2078 64.804 14.1705 64.7014 14.1705 64.58V58.308C14.1705 58.1867 14.2078 58.0887 14.2825 58.014C14.3665 57.93 14.4691 57.888 14.5905 57.888C14.7118 57.888 14.8098 57.93 14.8845 58.014C14.9685 58.0887 15.0105 58.1867 15.0105 58.308V59.078C15.2625 58.6767 15.6218 58.3454 16.0885 58.084C16.5645 57.8134 17.0498 57.678 17.5445 57.678Z" fill="black"/>
<path d="M23.0762 64.58C23.0762 64.7014 23.0342 64.804 22.9502 64.888C22.8755 64.9627 22.7775 65 22.6562 65C22.5349 65 22.4322 64.9627 22.3482 64.888C22.2735 64.804 22.2362 64.7014 22.2362 64.58V58.14C22.2362 58.0187 22.2735 57.9207 22.3482 57.846C22.4322 57.762 22.5349 57.72 22.6562 57.72C22.7775 57.72 22.8755 57.762 22.9502 57.846C23.0342 57.9207 23.0762 58.0187 23.0762 58.14V64.58ZM22.6562 56.782C22.4695 56.782 22.3249 56.74 22.2222 56.656C22.1195 56.5627 22.0682 56.432 22.0682 56.264V56.124C22.0682 55.956 22.1195 55.83 22.2222 55.746C22.3342 55.6527 22.4835 55.606 22.6702 55.606C23.0435 55.606 23.2302 55.7787 23.2302 56.124V56.264C23.2302 56.432 23.1789 56.5627 23.0762 56.656C22.9829 56.74 22.8429 56.782 22.6562 56.782Z" fill="black"/>
<path d="M33.3783 57.79C34.2183 57.79 34.8343 58.0514 35.2263 58.574C35.6277 59.0874 35.8283 59.7687 35.8283 60.618V64.58C35.8283 64.7014 35.7863 64.804 35.7023 64.888C35.6277 64.9627 35.5297 65 35.4083 65C35.287 65 35.1843 64.9627 35.1003 64.888C35.0257 64.804 34.9883 64.7014 34.9883 64.58V60.66C34.9883 60.044 34.839 59.5447 34.5403 59.162C34.251 58.77 33.7983 58.574 33.1823 58.574C32.7903 58.574 32.417 58.6674 32.0623 58.854C31.717 59.0407 31.437 59.2974 31.2223 59.624C31.0077 59.9414 30.9003 60.2867 30.9003 60.66V64.58C30.9003 64.7014 30.8583 64.804 30.7743 64.888C30.6997 64.9627 30.6017 65 30.4803 65C30.359 65 30.2563 64.9627 30.1723 64.888C30.0977 64.804 30.0603 64.7014 30.0603 64.58V60.618C30.0603 60.0114 29.9203 59.5214 29.6403 59.148C29.3603 58.7654 28.9217 58.574 28.3243 58.574C27.9417 58.574 27.5777 58.6674 27.2323 58.854C26.8963 59.0407 26.621 59.2927 26.4063 59.61C26.201 59.918 26.0983 60.254 26.0983 60.618V64.58C26.0983 64.7014 26.0563 64.804 25.9723 64.888C25.8977 64.9627 25.7997 65 25.6783 65C25.557 65 25.4543 64.9627 25.3703 64.888C25.2957 64.804 25.2583 64.7014 25.2583 64.58V58.308C25.2583 58.1867 25.2957 58.0887 25.3703 58.014C25.4543 57.93 25.557 57.888 25.6783 57.888C25.7997 57.888 25.8977 57.93 25.9723 58.014C26.0563 58.0887 26.0983 58.1867 26.0983 58.308V59.12C26.3503 58.7374 26.691 58.42 27.1203 58.168C27.5497 57.916 28.0023 57.79 28.4783 57.79C29.0197 57.79 29.4863 57.9207 29.8783 58.182C30.2703 58.4434 30.5503 58.826 30.7183 59.33C30.9143 58.9194 31.2737 58.56 31.7963 58.252C32.319 57.944 32.8463 57.79 33.3783 57.79Z" fill="black"/>
<path d="M43.8379 57.846C43.9592 57.846 44.0572 57.888 44.1319 57.972C44.2159 58.056 44.2579 58.1587 44.2579 58.28V64.58C44.2579 64.7014 44.2159 64.804 44.1319 64.888C44.0572 64.9627 43.9592 65 43.8379 65C43.7165 65 43.6139 64.9627 43.5299 64.888C43.4552 64.804 43.4179 64.7014 43.4179 64.58V63.642C43.1845 64.062 42.8345 64.4167 42.3679 64.706C41.9012 64.9954 41.3925 65.14 40.8419 65.14C40.2165 65.14 39.6519 64.9767 39.1479 64.65C38.6532 64.3234 38.2612 63.8754 37.9719 63.306C37.6919 62.7367 37.5519 62.0974 37.5519 61.388C37.5519 60.6787 37.6965 60.044 37.9859 59.484C38.2752 58.9147 38.6672 58.4714 39.1619 58.154C39.6659 57.8367 40.2212 57.678 40.8279 57.678C41.3879 57.678 41.9012 57.8134 42.3679 58.084C42.8345 58.3547 43.1845 58.7094 43.4179 59.148V58.28C43.4179 58.1587 43.4552 58.056 43.5299 57.972C43.6139 57.888 43.7165 57.846 43.8379 57.846ZM40.9259 64.356C41.4112 64.356 41.8452 64.23 42.2279 63.978C42.6199 63.7167 42.9232 63.362 43.1379 62.914C43.3619 62.4567 43.4739 61.948 43.4739 61.388C43.4739 60.8467 43.3619 60.352 43.1379 59.904C42.9232 59.456 42.6199 59.106 42.2279 58.854C41.8452 58.5927 41.4112 58.462 40.9259 58.462C40.4405 58.462 40.0019 58.588 39.6099 58.84C39.2272 59.092 38.9239 59.442 38.6999 59.89C38.4852 60.3287 38.3779 60.828 38.3779 61.388C38.3779 61.948 38.4852 62.4567 38.6999 62.914C38.9145 63.362 39.2132 63.7167 39.5959 63.978C39.9879 64.23 40.4312 64.356 40.9259 64.356Z" fill="black"/>
<path d="M47.3737 64.58C47.3737 64.7014 47.3317 64.804 47.2477 64.888C47.1731 64.9627 47.0751 65 46.9538 65C46.8324 65 46.7297 64.9627 46.6457 64.888C46.5711 64.804 46.5337 64.7014 46.5337 64.58V55.06C46.5337 54.9387 46.5711 54.8407 46.6457 54.766C46.7297 54.682 46.8324 54.64 46.9538 54.64C47.0751 54.64 47.1731 54.682 47.2477 54.766C47.3317 54.8407 47.3737 54.9387 47.3737 55.06V64.58Z" fill="black"/>
<path d="M61.0224 64.44C61.0411 64.5147 61.0504 64.5707 61.0504 64.608C61.0504 64.7294 61.0084 64.8274 60.9244 64.902C60.8404 64.9767 60.7424 65.014 60.6304 65.014C60.5371 65.014 60.4531 64.9907 60.3784 64.944C60.3131 64.888 60.2618 64.818 60.2244 64.734L59.1744 62.172H54.6244L53.5884 64.734C53.5138 64.9207 53.3878 65.014 53.2104 65.014C53.0798 65.014 52.9818 64.9814 52.9164 64.916C52.8511 64.8507 52.8138 64.762 52.8044 64.65V64.608C52.8044 64.552 52.8091 64.51 52.8184 64.482L56.5144 55.438C56.5891 55.2514 56.7291 55.158 56.9344 55.158C57.0278 55.158 57.1071 55.186 57.1724 55.242C57.2471 55.2887 57.3031 55.354 57.3404 55.438L61.0224 64.44ZM54.9464 61.346H58.8384L56.8784 56.558L54.9464 61.346Z" fill="black"/>
<path d="M68.3789 54.64C68.5002 54.64 68.5982 54.682 68.6729 54.766C68.7569 54.8407 68.7989 54.9387 68.7989 55.06V64.58C68.7989 64.7014 68.7569 64.804 68.6729 64.888C68.5982 64.9627 68.5002 65 68.3789 65C68.2576 65 68.1549 64.9627 68.0709 64.888C67.9962 64.804 67.9589 64.7014 67.9589 64.58V63.6C67.7256 64.0294 67.3756 64.3934 66.9089 64.692C66.4516 64.9907 65.9429 65.14 65.3829 65.14C64.7669 65.14 64.2069 64.9814 63.7029 64.664C63.2082 64.3374 62.8162 63.8894 62.5269 63.32C62.2376 62.7507 62.0929 62.1114 62.0929 61.402C62.0929 60.702 62.2376 60.0674 62.5269 59.498C62.8162 58.9287 63.2082 58.4854 63.7029 58.168C64.2069 57.8414 64.7622 57.678 65.3689 57.678C65.9196 57.678 66.4282 57.818 66.8949 58.098C67.3616 58.3687 67.7162 58.7234 67.9589 59.162V55.06C67.9589 54.9387 67.9962 54.8407 68.0709 54.766C68.1549 54.682 68.2576 54.64 68.3789 54.64ZM65.4669 64.356C65.9522 64.356 66.3862 64.23 66.7689 63.978C67.1609 63.726 67.4642 63.376 67.6789 62.928C67.9029 62.4707 68.0149 61.962 68.0149 61.402C68.0149 60.8514 67.9029 60.352 67.6789 59.904C67.4642 59.456 67.1609 59.106 66.7689 58.854C66.3862 58.5927 65.9522 58.462 65.4669 58.462C64.9816 58.462 64.5429 58.5927 64.1509 58.854C63.7682 59.106 63.4649 59.456 63.2409 59.904C63.0262 60.352 62.9189 60.8514 62.9189 61.402C62.9189 61.962 63.0262 62.466 63.2409 62.914C63.4649 63.362 63.7682 63.7167 64.1509 63.978C64.5429 64.23 64.9816 64.356 65.4669 64.356Z" fill="black"/>
<path d="M77.5988 61.416C77.5988 62.116 77.4448 62.7507 77.1368 63.32C76.8288 63.8894 76.4041 64.3374 75.8628 64.664C75.3214 64.9814 74.7194 65.14 74.0568 65.14C73.3941 65.14 72.7921 64.9814 72.2508 64.664C71.7094 64.3374 71.2848 63.8894 70.9768 63.32C70.6688 62.7507 70.5148 62.116 70.5148 61.416C70.5148 60.716 70.6688 60.0814 70.9768 59.512C71.2848 58.9427 71.7094 58.4947 72.2508 58.168C72.7921 57.8414 73.3941 57.678 74.0568 57.678C74.7194 57.678 75.3214 57.8414 75.8628 58.168C76.4041 58.4947 76.8288 58.9427 77.1368 59.512C77.4448 60.0814 77.5988 60.716 77.5988 61.416ZM76.7588 61.416C76.7588 60.856 76.6421 60.352 76.4088 59.904C76.1754 59.456 75.8488 59.106 75.4288 58.854C75.0181 58.5927 74.5608 58.462 74.0568 58.462C73.5528 58.462 73.0954 58.5927 72.6848 58.854C72.2741 59.106 71.9474 59.456 71.7048 59.904C71.4714 60.352 71.3548 60.856 71.3548 61.416C71.3548 61.9667 71.4714 62.466 71.7048 62.914C71.9474 63.362 72.2741 63.7167 72.6848 63.978C73.0954 64.23 73.5528 64.356 74.0568 64.356C74.5608 64.356 75.0181 64.23 75.4288 63.978C75.8488 63.726 76.1754 63.376 76.4088 62.928C76.6421 62.48 76.7588 61.976 76.7588 61.416Z" fill="black"/>
<path d="M82.7189 57.79C83.3349 57.79 83.8949 57.9487 84.3989 58.266C84.9029 58.574 85.2949 59.008 85.5749 59.568C85.8643 60.1187 86.0089 60.7394 86.0089 61.43C86.0089 62.13 85.8643 62.76 85.5749 63.32C85.2949 63.8707 84.9029 64.3047 84.3989 64.622C83.9043 64.9394 83.3489 65.098 82.7329 65.098C82.1916 65.098 81.6923 64.972 81.2349 64.72C80.7869 64.4587 80.4276 64.1134 80.1569 63.684V67.38C80.1569 67.5014 80.1149 67.5994 80.0309 67.674C79.9563 67.758 79.8583 67.8 79.7369 67.8C79.6156 67.8 79.5129 67.758 79.4289 67.674C79.3543 67.5994 79.3169 67.5014 79.3169 67.38V58.252C79.3169 58.1307 79.3543 58.028 79.4289 57.944C79.5129 57.86 79.6156 57.818 79.7369 57.818C79.8583 57.818 79.9563 57.86 80.0309 57.944C80.1149 58.028 80.1569 58.1307 80.1569 58.252V59.204C80.3996 58.7654 80.7496 58.42 81.2069 58.168C81.6643 57.916 82.1683 57.79 82.7189 57.79ZM82.6489 64.314C83.1343 64.314 83.5683 64.1927 83.9509 63.95C84.3429 63.698 84.6463 63.3527 84.8609 62.914C85.0849 62.4754 85.1969 61.9807 85.1969 61.43C85.1969 60.8887 85.0849 60.4034 84.8609 59.974C84.6463 59.5354 84.3429 59.1947 83.9509 58.952C83.5683 58.7 83.1343 58.574 82.6489 58.574C82.1543 58.574 81.7109 58.6954 81.3189 58.938C80.9269 59.1807 80.6236 59.5214 80.4089 59.96C80.1943 60.3894 80.0869 60.8794 80.0869 61.43C80.0869 61.9807 80.1943 62.4754 80.4089 62.914C80.6236 63.3527 80.9269 63.698 81.3189 63.95C81.7109 64.1927 82.1543 64.314 82.6489 64.314Z" fill="black"/>
<path d="M89.1388 58.658V63.348C89.1388 63.7027 89.2041 63.9454 89.3348 64.076C89.4655 64.1974 89.6381 64.258 89.8528 64.258C89.9088 64.258 89.9788 64.2487 90.0628 64.23C90.1468 64.202 90.2121 64.188 90.2588 64.188C90.3428 64.188 90.4128 64.2254 90.4688 64.3C90.5341 64.3654 90.5668 64.4447 90.5668 64.538C90.5668 64.6687 90.4921 64.7807 90.3428 64.874C90.1935 64.958 90.0161 65 89.8108 65C89.5588 65 89.3348 64.9767 89.1388 64.93C88.9428 64.8834 88.7515 64.7434 88.5648 64.51C88.3875 64.2767 88.2988 63.9034 88.2988 63.39V58.658H87.2768C87.1648 58.658 87.0668 58.6207 86.9828 58.546C86.9081 58.4714 86.8708 58.378 86.8708 58.266C86.8708 58.154 86.9081 58.0607 86.9828 57.986C87.0668 57.9114 87.1648 57.874 87.2768 57.874H88.2988V56.32C88.2988 56.1987 88.3361 56.1007 88.4108 56.026C88.4948 55.942 88.5975 55.9 88.7188 55.9C88.8401 55.9 88.9381 55.942 89.0128 56.026C89.0968 56.1007 89.1388 56.1987 89.1388 56.32V57.874H90.5388C90.6415 57.874 90.7301 57.916 90.8048 58C90.8888 58.084 90.9308 58.1774 90.9308 58.28C90.9308 58.392 90.8935 58.4854 90.8188 58.56C90.7441 58.6254 90.6508 58.658 90.5388 58.658H89.1388Z" fill="black"/>
<path d="M93.295 64.58C93.295 64.7014 93.253 64.804 93.169 64.888C93.0943 64.9627 92.9963 65 92.875 65C92.7536 65 92.651 64.9627 92.567 64.888C92.4923 64.804 92.455 64.7014 92.455 64.58V58.14C92.455 58.0187 92.4923 57.9207 92.567 57.846C92.651 57.762 92.7536 57.72 92.875 57.72C92.9963 57.72 93.0943 57.762 93.169 57.846C93.253 57.9207 93.295 58.0187 93.295 58.14V64.58ZM92.875 56.782C92.6883 56.782 92.5436 56.74 92.441 56.656C92.3383 56.5627 92.287 56.432 92.287 56.264V56.124C92.287 55.956 92.3383 55.83 92.441 55.746C92.553 55.6527 92.7023 55.606 92.889 55.606C93.2623 55.606 93.449 55.7787 93.449 56.124V56.264C93.449 56.432 93.3976 56.5627 93.295 56.656C93.2016 56.74 93.0616 56.782 92.875 56.782Z" fill="black"/>
<path d="M102.085 61.416C102.085 62.116 101.931 62.7507 101.623 63.32C101.315 63.8894 100.89 64.3374 100.349 64.664C99.8078 64.9814 99.2058 65.14 98.5431 65.14C97.8804 65.14 97.2784 64.9814 96.7371 64.664C96.1958 64.3374 95.7711 63.8894 95.4631 63.32C95.1551 62.7507 95.0011 62.116 95.0011 61.416C95.0011 60.716 95.1551 60.0814 95.4631 59.512C95.7711 58.9427 96.1958 58.4947 96.7371 58.168C97.2784 57.8414 97.8804 57.678 98.5431 57.678C99.2058 57.678 99.8078 57.8414 100.349 58.168C100.89 58.4947 101.315 58.9427 101.623 59.512C101.931 60.0814 102.085 60.716 102.085 61.416ZM101.245 61.416C101.245 60.856 101.128 60.352 100.895 59.904C100.662 59.456 100.335 59.106 99.9151 58.854C99.5044 58.5927 99.0471 58.462 98.5431 58.462C98.0391 58.462 97.5818 58.5927 97.1711 58.854C96.7604 59.106 96.4338 59.456 96.1911 59.904C95.9578 60.352 95.8411 60.856 95.8411 61.416C95.8411 61.9667 95.9578 62.466 96.1911 62.914C96.4338 63.362 96.7604 63.7167 97.1711 63.978C97.5818 64.23 98.0391 64.356 98.5431 64.356C99.0471 64.356 99.5044 64.23 99.9151 63.978C100.335 63.726 100.662 63.376 100.895 62.928C101.128 62.48 101.245 61.976 101.245 61.416Z" fill="black"/>
<path d="M107.177 57.678C108.045 57.678 108.68 57.9347 109.081 58.448C109.492 58.952 109.697 59.624 109.697 60.464V64.58C109.697 64.7014 109.655 64.804 109.571 64.888C109.487 64.9627 109.389 65 109.277 65C109.156 65 109.053 64.9627 108.969 64.888C108.895 64.804 108.857 64.7014 108.857 64.58V60.506C108.857 59.8994 108.703 59.4094 108.395 59.036C108.097 58.6534 107.63 58.462 106.995 58.462C106.594 58.462 106.211 58.5554 105.847 58.742C105.493 58.9287 105.203 59.1807 104.979 59.498C104.755 59.806 104.643 60.142 104.643 60.506V64.58C104.643 64.7014 104.601 64.804 104.517 64.888C104.443 64.9627 104.345 65 104.223 65C104.102 65 103.999 64.9627 103.915 64.888C103.841 64.804 103.803 64.7014 103.803 64.58V58.308C103.803 58.1867 103.841 58.0887 103.915 58.014C103.999 57.93 104.102 57.888 104.223 57.888C104.345 57.888 104.443 57.93 104.517 58.014C104.601 58.0887 104.643 58.1867 104.643 58.308V59.078C104.895 58.6767 105.255 58.3454 105.721 58.084C106.197 57.8134 106.683 57.678 107.177 57.678Z" fill="black"/>
<path d="M123.593 64.216C123.714 64.3094 123.775 64.426 123.775 64.566C123.775 64.6594 123.738 64.748 123.663 64.832C123.598 64.916 123.509 64.958 123.397 64.958C123.304 64.958 123.22 64.9347 123.145 64.888L122.837 64.65C122.408 64.3327 122.044 64.048 121.745 63.796C121.344 64.216 120.863 64.5474 120.303 64.79C119.752 65.0234 119.127 65.14 118.427 65.14C117.783 65.14 117.2 64.9907 116.677 64.692C116.164 64.384 115.762 63.9874 115.473 63.502C115.184 63.0074 115.039 62.4894 115.039 61.948C115.039 61.332 115.216 60.7674 115.571 60.254C115.926 59.7314 116.448 59.3347 117.139 59.064C116.747 58.448 116.551 57.8787 116.551 57.356C116.551 56.9174 116.658 56.5254 116.873 56.18C117.088 55.8347 117.391 55.564 117.783 55.368C118.184 55.1627 118.651 55.06 119.183 55.06C119.818 55.06 120.359 55.1814 120.807 55.424C121.264 55.6667 121.586 55.97 121.773 56.334C121.82 56.4274 121.843 56.516 121.843 56.6C121.843 56.6934 121.806 56.7774 121.731 56.852C121.656 56.9174 121.563 56.95 121.451 56.95C121.302 56.95 121.199 56.8987 121.143 56.796C120.938 56.488 120.676 56.25 120.359 56.082C120.051 55.914 119.659 55.83 119.183 55.83C118.623 55.83 118.189 55.97 117.881 56.25C117.582 56.5207 117.433 56.8894 117.433 57.356C117.433 57.748 117.578 58.182 117.867 58.658C118.166 59.134 118.562 59.6474 119.057 60.198C119.748 60.9727 120.602 61.794 121.619 62.662C121.946 62.1114 122.17 61.5047 122.291 60.842C122.31 60.758 122.347 60.688 122.403 60.632C122.468 60.576 122.557 60.548 122.669 60.548C122.79 60.548 122.888 60.5994 122.963 60.702C123.047 60.7954 123.08 60.9074 123.061 61.038C122.949 61.8034 122.678 62.5127 122.249 63.166C122.641 63.4927 123.089 63.8427 123.593 64.216ZM118.525 64.328C119.598 64.328 120.466 63.9827 121.129 63.292C120.14 62.4987 119.197 61.5887 118.301 60.562C117.965 60.17 117.727 59.8807 117.587 59.694C117.008 59.8714 116.584 60.1514 116.313 60.534C116.042 60.9167 115.907 61.3507 115.907 61.836C115.907 62.2654 116.005 62.6714 116.201 63.054C116.406 63.4367 116.705 63.7447 117.097 63.978C117.498 64.2114 117.974 64.328 118.525 64.328Z" fill="black"/>
<path d="M140.605 55.172C140.736 55.172 140.843 55.2094 140.927 55.284C141.011 55.3587 141.053 55.4614 141.053 55.592L141.025 55.774L137.931 64.734C137.903 64.818 137.852 64.8834 137.777 64.93C137.712 64.9767 137.637 65 137.553 65C137.339 65 137.199 64.9114 137.133 64.734L134.711 58.756L132.289 64.734C132.205 64.9114 132.065 65 131.869 65C131.785 65 131.706 64.9767 131.631 64.93C131.566 64.8834 131.524 64.818 131.505 64.734L128.411 55.774C128.383 55.718 128.369 55.662 128.369 55.606C128.369 55.4754 128.416 55.3727 128.509 55.298C128.612 55.214 128.719 55.172 128.831 55.172C128.925 55.172 129.009 55.1954 129.083 55.242C129.158 55.2887 129.209 55.354 129.237 55.438L131.981 63.446L134.333 57.58C134.417 57.3934 134.548 57.3047 134.725 57.314C134.819 57.3047 134.898 57.328 134.963 57.384C135.038 57.4307 135.094 57.496 135.131 57.58L137.469 63.446L140.185 55.438C140.26 55.2607 140.4 55.172 140.605 55.172Z" fill="black"/>
<path d="M148.42 61.01C148.42 61.122 148.378 61.22 148.294 61.304C148.21 61.3787 148.112 61.416 148 61.416H142.708C142.708 61.976 142.82 62.48 143.044 62.928C143.277 63.3667 143.604 63.7167 144.024 63.978C144.453 64.23 144.957 64.356 145.536 64.356C145.984 64.356 146.385 64.2627 146.74 64.076C147.094 63.8894 147.379 63.6514 147.594 63.362C147.696 63.278 147.794 63.236 147.888 63.236C147.981 63.236 148.065 63.2734 148.14 63.348C148.214 63.4227 148.252 63.5067 148.252 63.6C148.252 63.7027 148.205 63.8007 148.112 63.894C147.813 64.258 147.435 64.5567 146.978 64.79C146.53 65.0234 146.054 65.14 145.55 65.14C144.831 65.14 144.196 64.986 143.646 64.678C143.095 64.37 142.666 63.9407 142.358 63.39C142.05 62.83 141.896 62.186 141.896 61.458C141.896 60.6927 142.045 60.0254 142.344 59.456C142.652 58.8774 143.058 58.4387 143.562 58.14C144.066 57.832 144.602 57.678 145.172 57.678C145.732 57.678 146.254 57.8087 146.74 58.07C147.234 58.3314 147.636 58.714 147.944 59.218C148.252 59.722 148.41 60.3194 148.42 61.01ZM145.172 58.49C144.63 58.49 144.126 58.6767 143.66 59.05C143.202 59.4234 142.908 59.96 142.778 60.66H147.552V60.548C147.505 60.128 147.365 59.764 147.132 59.456C146.898 59.1387 146.604 58.9007 146.25 58.742C145.904 58.574 145.545 58.49 145.172 58.49Z" fill="black"/>
<path d="M151.075 64.58C151.075 64.7014 151.033 64.804 150.949 64.888C150.874 64.9627 150.776 65 150.655 65C150.534 65 150.431 64.9627 150.347 64.888C150.272 64.804 150.235 64.7014 150.235 64.58V55.06C150.235 54.9387 150.272 54.8407 150.347 54.766C150.431 54.682 150.534 54.64 150.655 54.64C150.776 54.64 150.874 54.682 150.949 54.766C151.033 54.8407 151.075 54.9387 151.075 55.06V64.58Z" fill="black"/>
<path d="M155.869 55.438C155.571 55.438 155.337 55.536 155.169 55.732C155.011 55.928 154.931 56.1987 154.931 56.544V57.986H156.499C156.602 57.986 156.691 58.0234 156.765 58.098C156.849 58.1727 156.891 58.266 156.891 58.378C156.891 58.49 156.849 58.5834 156.765 58.658C156.691 58.7327 156.602 58.77 156.499 58.77H154.931V64.58C154.931 64.7014 154.889 64.804 154.805 64.888C154.731 64.9627 154.633 65 154.511 65C154.39 65 154.287 64.9627 154.203 64.888C154.129 64.804 154.091 64.7014 154.091 64.58V58.77H153.069C152.957 58.77 152.864 58.7327 152.789 58.658C152.715 58.574 152.677 58.4807 152.677 58.378C152.677 58.2567 152.715 58.1634 152.789 58.098C152.864 58.0234 152.957 57.986 153.069 57.986H154.091V56.544C154.091 55.956 154.259 55.5034 154.595 55.186C154.941 54.8594 155.398 54.696 155.967 54.696C156.229 54.696 156.471 54.738 156.695 54.822C156.919 54.8967 157.031 55.0227 157.031 55.2C157.031 55.312 156.994 55.4054 156.919 55.48C156.845 55.5547 156.761 55.592 156.667 55.592C156.583 55.592 156.481 55.5687 156.359 55.522C156.154 55.466 155.991 55.438 155.869 55.438Z" fill="black"/>
<path d="M164.123 57.846C164.244 57.846 164.342 57.888 164.417 57.972C164.501 58.056 164.543 58.1587 164.543 58.28V64.58C164.543 64.7014 164.501 64.804 164.417 64.888C164.342 64.9627 164.244 65 164.123 65C164.002 65 163.899 64.9627 163.815 64.888C163.74 64.804 163.703 64.7014 163.703 64.58V63.642C163.47 64.062 163.12 64.4167 162.653 64.706C162.186 64.9954 161.678 65.14 161.127 65.14C160.502 65.14 159.937 64.9767 159.433 64.65C158.938 64.3234 158.546 63.8754 158.257 63.306C157.977 62.7367 157.837 62.0974 157.837 61.388C157.837 60.6787 157.982 60.044 158.271 59.484C158.56 58.9147 158.952 58.4714 159.447 58.154C159.951 57.8367 160.506 57.678 161.113 57.678C161.673 57.678 162.186 57.8134 162.653 58.084C163.12 58.3547 163.47 58.7094 163.703 59.148V58.28C163.703 58.1587 163.74 58.056 163.815 57.972C163.899 57.888 164.002 57.846 164.123 57.846ZM161.211 64.356C161.696 64.356 162.13 64.23 162.513 63.978C162.905 63.7167 163.208 63.362 163.423 62.914C163.647 62.4567 163.759 61.948 163.759 61.388C163.759 60.8467 163.647 60.352 163.423 59.904C163.208 59.456 162.905 59.106 162.513 58.854C162.13 58.5927 161.696 58.462 161.211 58.462C160.726 58.462 160.287 58.588 159.895 58.84C159.512 59.092 159.209 59.442 158.985 59.89C158.77 60.3287 158.663 60.828 158.663 61.388C158.663 61.948 158.77 62.4567 158.985 62.914C159.2 63.362 159.498 63.7167 159.881 63.978C160.273 64.23 160.716 64.356 161.211 64.356Z" fill="black"/>
<path d="M170.081 57.678C170.268 57.678 170.436 57.7154 170.585 57.79C170.734 57.8647 170.809 57.9767 170.809 58.126C170.809 58.2567 170.772 58.364 170.697 58.448C170.622 58.5227 170.534 58.56 170.431 58.56C170.384 58.56 170.291 58.5367 170.151 58.49C170.02 58.4434 169.894 58.42 169.773 58.42C169.428 58.42 169.082 58.5554 168.737 58.826C168.401 59.0874 168.121 59.428 167.897 59.848C167.682 60.268 167.575 60.6927 167.575 61.122V64.58C167.575 64.7014 167.533 64.804 167.449 64.888C167.374 64.9627 167.276 65 167.155 65C167.034 65 166.931 64.9627 166.847 64.888C166.772 64.804 166.735 64.7014 166.735 64.58V58.308C166.735 58.1867 166.772 58.0887 166.847 58.014C166.931 57.93 167.034 57.888 167.155 57.888C167.276 57.888 167.374 57.93 167.449 58.014C167.533 58.0887 167.575 58.1867 167.575 58.308V59.54C167.79 59.008 168.112 58.5694 168.541 58.224C168.98 57.8694 169.493 57.6874 170.081 57.678Z" fill="black"/>
<path d="M177.855 61.01C177.855 61.122 177.813 61.22 177.729 61.304C177.645 61.3787 177.547 61.416 177.435 61.416H172.143C172.143 61.976 172.255 62.48 172.479 62.928C172.713 63.3667 173.039 63.7167 173.459 63.978C173.889 64.23 174.393 64.356 174.971 64.356C175.419 64.356 175.821 64.2627 176.175 64.076C176.53 63.8894 176.815 63.6514 177.029 63.362C177.132 63.278 177.23 63.236 177.323 63.236C177.416 63.236 177.5 63.2734 177.575 63.348C177.65 63.4227 177.687 63.5067 177.687 63.6C177.687 63.7027 177.64 63.8007 177.547 63.894C177.248 64.258 176.871 64.5567 176.413 64.79C175.965 65.0234 175.489 65.14 174.985 65.14C174.267 65.14 173.632 64.986 173.081 64.678C172.531 64.37 172.101 63.9407 171.793 63.39C171.485 62.83 171.331 62.186 171.331 61.458C171.331 60.6927 171.481 60.0254 171.779 59.456C172.087 58.8774 172.493 58.4387 172.997 58.14C173.501 57.832 174.038 57.678 174.607 57.678C175.167 57.678 175.69 57.8087 176.175 58.07C176.67 58.3314 177.071 58.714 177.379 59.218C177.687 59.722 177.846 60.3194 177.855 61.01ZM174.607 58.49C174.066 58.49 173.562 58.6767 173.095 59.05C172.638 59.4234 172.344 59.96 172.213 60.66H176.987V60.548C176.941 60.128 176.801 59.764 176.567 59.456C176.334 59.1387 176.04 58.9007 175.685 58.742C175.34 58.574 174.981 58.49 174.607 58.49Z" fill="black"/>
<path d="M187.363 55.2C187.876 55.2 188.338 55.3214 188.749 55.564C189.159 55.7974 189.477 56.1287 189.701 56.558C189.934 56.978 190.051 57.454 190.051 57.986C190.051 58.518 189.934 59.0034 189.701 59.442C189.477 59.8807 189.159 60.226 188.749 60.478C188.338 60.73 187.876 60.856 187.363 60.856H184.465V64.58C184.465 64.7014 184.423 64.804 184.339 64.888C184.264 64.9627 184.166 65 184.045 65C183.923 65 183.821 64.9627 183.737 64.888C183.662 64.804 183.625 64.7014 183.625 64.58V55.62C183.625 55.4987 183.662 55.4007 183.737 55.326C183.821 55.242 183.923 55.2 184.045 55.2H187.363ZM187.363 60.044C187.904 60.044 188.343 59.848 188.679 59.456C189.015 59.064 189.183 58.574 189.183 57.986C189.183 57.4074 189.015 56.936 188.679 56.572C188.343 56.208 187.904 56.026 187.363 56.026H184.465V60.044H187.363Z" fill="black"/>
<path d="M195.1 57.678C195.287 57.678 195.455 57.7154 195.604 57.79C195.754 57.8647 195.828 57.9767 195.828 58.126C195.828 58.2567 195.791 58.364 195.716 58.448C195.642 58.5227 195.553 58.56 195.45 58.56C195.404 58.56 195.31 58.5367 195.17 58.49C195.04 58.4434 194.914 58.42 194.792 58.42C194.447 58.42 194.102 58.5554 193.756 58.826C193.42 59.0874 193.14 59.428 192.916 59.848C192.702 60.268 192.594 60.6927 192.594 61.122V64.58C192.594 64.7014 192.552 64.804 192.468 64.888C192.394 64.9627 192.296 65 192.174 65C192.053 65 191.95 64.9627 191.866 64.888C191.792 64.804 191.754 64.7014 191.754 64.58V58.308C191.754 58.1867 191.792 58.0887 191.866 58.014C191.95 57.93 192.053 57.888 192.174 57.888C192.296 57.888 192.394 57.93 192.468 58.014C192.552 58.0887 192.594 58.1867 192.594 58.308V59.54C192.809 59.008 193.131 58.5694 193.56 58.224C193.999 57.8694 194.512 57.6874 195.1 57.678Z" fill="black"/>
<path d="M203.435 61.416C203.435 62.116 203.281 62.7507 202.973 63.32C202.665 63.8894 202.24 64.3374 201.699 64.664C201.157 64.9814 200.555 65.14 199.893 65.14C199.23 65.14 198.628 64.9814 198.087 64.664C197.545 64.3374 197.121 63.8894 196.813 63.32C196.505 62.7507 196.351 62.116 196.351 61.416C196.351 60.716 196.505 60.0814 196.813 59.512C197.121 58.9427 197.545 58.4947 198.087 58.168C198.628 57.8414 199.23 57.678 199.893 57.678C200.555 57.678 201.157 57.8414 201.699 58.168C202.24 58.4947 202.665 58.9427 202.973 59.512C203.281 60.0814 203.435 60.716 203.435 61.416ZM202.595 61.416C202.595 60.856 202.478 60.352 202.245 59.904C202.011 59.456 201.685 59.106 201.265 58.854C200.854 58.5927 200.397 58.462 199.893 58.462C199.389 58.462 198.931 58.5927 198.521 58.854C198.11 59.106 197.783 59.456 197.541 59.904C197.307 60.352 197.191 60.856 197.191 61.416C197.191 61.9667 197.307 62.466 197.541 62.914C197.783 63.362 198.11 63.7167 198.521 63.978C198.931 64.23 199.389 64.356 199.893 64.356C200.397 64.356 200.854 64.23 201.265 63.978C201.685 63.726 202.011 63.376 202.245 62.928C202.478 62.48 202.595 61.976 202.595 61.416Z" fill="black"/>
<path d="M206.553 58.658V63.348C206.553 63.7027 206.618 63.9454 206.749 64.076C206.88 64.1974 207.052 64.258 207.267 64.258C207.323 64.258 207.393 64.2487 207.477 64.23C207.561 64.202 207.626 64.188 207.673 64.188C207.757 64.188 207.827 64.2254 207.883 64.3C207.948 64.3654 207.981 64.4447 207.981 64.538C207.981 64.6687 207.906 64.7807 207.757 64.874C207.608 64.958 207.43 65 207.225 65C206.973 65 206.749 64.9767 206.553 64.93C206.357 64.8834 206.166 64.7434 205.979 64.51C205.802 64.2767 205.713 63.9034 205.713 63.39V58.658H204.691C204.579 58.658 204.481 58.6207 204.397 58.546C204.322 58.4714 204.285 58.378 204.285 58.266C204.285 58.154 204.322 58.0607 204.397 57.986C204.481 57.9114 204.579 57.874 204.691 57.874H205.713V56.32C205.713 56.1987 205.75 56.1007 205.825 56.026C205.909 55.942 206.012 55.9 206.133 55.9C206.254 55.9 206.352 55.942 206.427 56.026C206.511 56.1007 206.553 56.1987 206.553 56.32V57.874H207.953C208.056 57.874 208.144 57.916 208.219 58C208.303 58.084 208.345 58.1774 208.345 58.28C208.345 58.392 208.308 58.4854 208.233 58.56C208.158 58.6254 208.065 58.658 207.953 58.658H206.553Z" fill="black"/>
<path d="M215.877 61.01C215.877 61.122 215.835 61.22 215.751 61.304C215.667 61.3787 215.569 61.416 215.457 61.416H210.165C210.165 61.976 210.277 62.48 210.501 62.928C210.734 63.3667 211.061 63.7167 211.481 63.978C211.91 64.23 212.414 64.356 212.993 64.356C213.441 64.356 213.842 64.2627 214.197 64.076C214.551 63.8894 214.836 63.6514 215.051 63.362C215.153 63.278 215.251 63.236 215.345 63.236C215.438 63.236 215.522 63.2734 215.597 63.348C215.671 63.4227 215.709 63.5067 215.709 63.6C215.709 63.7027 215.662 63.8007 215.569 63.894C215.27 64.258 214.892 64.5567 214.435 64.79C213.987 65.0234 213.511 65.14 213.007 65.14C212.288 65.14 211.653 64.986 211.103 64.678C210.552 64.37 210.123 63.9407 209.815 63.39C209.507 62.83 209.353 62.186 209.353 61.458C209.353 60.6927 209.502 60.0254 209.801 59.456C210.109 58.8774 210.515 58.4387 211.019 58.14C211.523 57.832 212.059 57.678 212.629 57.678C213.189 57.678 213.711 57.8087 214.197 58.07C214.691 58.3314 215.093 58.714 215.401 59.218C215.709 59.722 215.867 60.3194 215.877 61.01ZM212.629 58.49C212.087 58.49 211.583 58.6767 211.117 59.05C210.659 59.4234 210.365 59.96 210.235 60.66H215.009V60.548C214.962 60.128 214.822 59.764 214.589 59.456C214.355 59.1387 214.061 58.9007 213.707 58.742C213.361 58.574 213.002 58.49 212.629 58.49Z" fill="black"/>
<path d="M220.702 57.678C221.141 57.678 221.547 57.7294 221.92 57.832C222.303 57.9254 222.606 58.056 222.83 58.224C223.063 58.392 223.18 58.574 223.18 58.77C223.18 58.8727 223.143 58.966 223.068 59.05C223.003 59.134 222.919 59.176 222.816 59.176C222.723 59.176 222.643 59.1574 222.578 59.12C222.522 59.0827 222.457 59.0267 222.382 58.952C222.261 58.8307 222.144 58.742 222.032 58.686C221.892 58.6207 221.705 58.5694 221.472 58.532C221.248 58.4854 221.005 58.462 220.744 58.462C220.231 58.462 219.759 58.5927 219.33 58.854C218.91 59.1154 218.579 59.47 218.336 59.918C218.093 60.366 217.972 60.8607 217.972 61.402C217.972 61.962 218.089 62.466 218.322 62.914C218.555 63.362 218.877 63.7167 219.288 63.978C219.708 64.23 220.184 64.356 220.716 64.356C221.052 64.356 221.318 64.328 221.514 64.272C221.719 64.216 221.92 64.1367 222.116 64.034C222.181 63.9967 222.293 63.9127 222.452 63.782C222.527 63.7167 222.592 63.67 222.648 63.642C222.704 63.6047 222.765 63.586 222.83 63.586C222.942 63.586 223.031 63.6234 223.096 63.698C223.161 63.7634 223.194 63.852 223.194 63.964C223.194 64.1227 223.082 64.2954 222.858 64.482C222.634 64.6594 222.326 64.8134 221.934 64.944C221.542 65.0747 221.108 65.14 220.632 65.14C219.951 65.14 219.344 64.9814 218.812 64.664C218.28 64.3374 217.865 63.8894 217.566 63.32C217.277 62.7507 217.132 62.1114 217.132 61.402C217.132 60.7207 217.281 60.1 217.58 59.54C217.879 58.9707 218.299 58.518 218.84 58.182C219.381 57.846 220.002 57.678 220.702 57.678Z" fill="black"/>
<path d="M226.199 58.658V63.348C226.199 63.7027 226.265 63.9454 226.395 64.076C226.526 64.1974 226.699 64.258 226.913 64.258C226.969 64.258 227.039 64.2487 227.123 64.23C227.207 64.202 227.273 64.188 227.319 64.188C227.403 64.188 227.473 64.2254 227.529 64.3C227.595 64.3654 227.627 64.4447 227.627 64.538C227.627 64.6687 227.553 64.7807 227.403 64.874C227.254 64.958 227.077 65 226.871 65C226.619 65 226.395 64.9767 226.199 64.93C226.003 64.8834 225.812 64.7434 225.625 64.51C225.448 64.2767 225.359 63.9034 225.359 63.39V58.658H224.337C224.225 58.658 224.127 58.6207 224.043 58.546C223.969 58.4714 223.931 58.378 223.931 58.266C223.931 58.154 223.969 58.0607 224.043 57.986C224.127 57.9114 224.225 57.874 224.337 57.874H225.359V56.32C225.359 56.1987 225.397 56.1007 225.471 56.026C225.555 55.942 225.658 55.9 225.779 55.9C225.901 55.9 225.999 55.942 226.073 56.026C226.157 56.1007 226.199 56.1987 226.199 56.32V57.874H227.599C227.702 57.874 227.791 57.916 227.865 58C227.949 58.084 227.991 58.1774 227.991 58.28C227.991 58.392 227.954 58.4854 227.879 58.56C227.805 58.6254 227.711 58.658 227.599 58.658H226.199Z" fill="black"/>
<path d="M230.355 64.58C230.355 64.7014 230.314 64.804 230.23 64.888C230.155 64.9627 230.057 65 229.936 65C229.814 65 229.712 64.9627 229.628 64.888C229.553 64.804 229.516 64.7014 229.516 64.58V58.14C229.516 58.0187 229.553 57.9207 229.628 57.846C229.712 57.762 229.814 57.72 229.936 57.72C230.057 57.72 230.155 57.762 230.23 57.846C230.314 57.9207 230.355 58.0187 230.355 58.14V64.58ZM229.936 56.782C229.749 56.782 229.604 56.74 229.501 56.656C229.399 56.5627 229.348 56.432 229.348 56.264V56.124C229.348 55.956 229.399 55.83 229.501 55.746C229.613 55.6527 229.763 55.606 229.949 55.606C230.323 55.606 230.51 55.7787 230.51 56.124V56.264C230.51 56.432 230.458 56.5627 230.355 56.656C230.262 56.74 230.122 56.782 229.936 56.782Z" fill="black"/>
<path d="M239.146 61.416C239.146 62.116 238.992 62.7507 238.684 63.32C238.376 63.8894 237.951 64.3374 237.41 64.664C236.868 64.9814 236.266 65.14 235.604 65.14C234.941 65.14 234.339 64.9814 233.798 64.664C233.256 64.3374 232.832 63.8894 232.524 63.32C232.216 62.7507 232.062 62.116 232.062 61.416C232.062 60.716 232.216 60.0814 232.524 59.512C232.832 58.9427 233.256 58.4947 233.798 58.168C234.339 57.8414 234.941 57.678 235.604 57.678C236.266 57.678 236.868 57.8414 237.41 58.168C237.951 58.4947 238.376 58.9427 238.684 59.512C238.992 60.0814 239.146 60.716 239.146 61.416ZM238.306 61.416C238.306 60.856 238.189 60.352 237.956 59.904C237.722 59.456 237.396 59.106 236.976 58.854C236.565 58.5927 236.108 58.462 235.604 58.462C235.1 58.462 234.642 58.5927 234.232 58.854C233.821 59.106 233.494 59.456 233.252 59.904C233.018 60.352 232.902 60.856 232.902 61.416C232.902 61.9667 233.018 62.466 233.252 62.914C233.494 63.362 233.821 63.7167 234.232 63.978C234.642 64.23 235.1 64.356 235.604 64.356C236.108 64.356 236.565 64.23 236.976 63.978C237.396 63.726 237.722 63.376 237.956 62.928C238.189 62.48 238.306 61.976 238.306 61.416Z" fill="black"/>
<path d="M244.238 57.678C245.106 57.678 245.74 57.9347 246.142 58.448C246.552 58.952 246.758 59.624 246.758 60.464V64.58C246.758 64.7014 246.716 64.804 246.632 64.888C246.548 64.9627 246.45 65 246.338 65C246.216 65 246.114 64.9627 246.03 64.888C245.955 64.804 245.918 64.7014 245.918 64.58V60.506C245.918 59.8994 245.764 59.4094 245.456 59.036C245.157 58.6534 244.69 58.462 244.056 58.462C243.654 58.462 243.272 58.5554 242.908 58.742C242.553 58.9287 242.264 59.1807 242.04 59.498C241.816 59.806 241.704 60.142 241.704 60.506V64.58C241.704 64.7014 241.662 64.804 241.578 64.888C241.503 64.9627 241.405 65 241.284 65C241.162 65 241.06 64.9627 240.976 64.888C240.901 64.804 240.864 64.7014 240.864 64.58V58.308C240.864 58.1867 240.901 58.0887 240.976 58.014C241.06 57.93 241.162 57.888 241.284 57.888C241.405 57.888 241.503 57.93 241.578 58.014C241.662 58.0887 241.704 58.1867 241.704 58.308V59.078C241.956 58.6767 242.315 58.3454 242.782 58.084C243.258 57.8134 243.743 57.678 244.238 57.678Z" fill="black"/>
</svg>
